<svg xmlns="http://www.w3.org/2000/svg" 
    xmlns:xlink="http://www.w3.org/1999/xlink" viewBox="0 0 143.1 35">
    <defs>
        <style>@keyframes blink-1 { 0% { -webkit-opacity: 0; } 50% { -webkit-opacity: 1 } 100% { -webkit-opacity: 0; } }.logo-pipe{fill:none;stroke:#323232;stroke-miterlimit:10;stroke-width:1.01px;-webkit-animation: blink-1 1s infinite;}.cls-2{fill:url(#linear-gradient);}.cls-3{fill:#fff;}.cls-4{fill:url(#linear-gradient-2);}.cls-5{fill:url(#linear-gradient-3);}.cls-6{fill:url(#linear-gradient-4);}.cls-7{fill:#323232;}</style>
        <linearGradient id="linear-gradient" x1="31.13" y1="-294.54" x2="7.2" y2="-259.58" gradientTransform="matrix(1, 0, 0, -1, 0, -259.69)" gradientUnits="userSpaceOnUse">
            <stop offset="0" stop-color="#be0000"/>
            <stop offset="0.39" stop-color="#de0000"/>
            <stop offset="0.77" stop-color="#f60000"/>
            <stop offset="1" stop-color="red"/>
        </linearGradient>
        <linearGradient id="linear-gradient-2" x1="24.53" y1="-278.75" x2="24.85" y2="-275.06" gradientTransform="matrix(1, 0, 0, -1, 0, -259.69)" gradientUnits="userSpaceOnUse">
            <stop offset="0.65" stop-color="#fff" stop-opacity="0"/>
            <stop offset="0.69" stop-color="#ededed" stop-opacity="0.23"/>
            <stop offset="0.76" stop-color="#d7d7d7" stop-opacity="0.5"/>
            <stop offset="0.81" stop-color="#c6c6c6" stop-opacity="0.72"/>
            <stop offset="0.87" stop-color="#b9b9b9" stop-opacity="0.87"/>
            <stop offset="0.91" stop-color="#b2b2b2" stop-opacity="0.97"/>
            <stop offset="0.95" stop-color="#afafaf"/>
        </linearGradient>
        <linearGradient id="linear-gradient-3" x1="19.8" y1="-288.5" x2="35.31" y2="-288.5" gradientTransform="matrix(1, 0, 0, -1, 0, -259.69)" gradientUnits="userSpaceOnUse">
            <stop offset="0" stop-color="#fff" stop-opacity="0"/>
            <stop offset="0.07" stop-color="#f3f3f3" stop-opacity="0.15"/>
            <stop offset="0.21" stop-color="#dedede" stop-opacity="0.41"/>
            <stop offset="0.35" stop-color="#cdcdcd" stop-opacity="0.62"/>
            <stop offset="0.49" stop-color="silver" stop-opacity="0.79"/>
            <stop offset="0.63" stop-color="#b7b7b7" stop-opacity="0.91"/>
            <stop offset="0.77" stop-color="#b1b1b1" stop-opacity="0.98"/>
            <stop offset="0.9" stop-color="#afafaf"/>
        </linearGradient>
        <linearGradient id="linear-gradient-4" x1="0.4" y1="-272.38" x2="17.75" y2="-272.38" gradientTransform="matrix(1, 0, 0, -1, 0, -259.69)" gradientUnits="userSpaceOnUse">
            <stop offset="0.25" stop-color="#fff" stop-opacity="0"/>
            <stop offset="0.36" stop-color="#f7f7f7" stop-opacity="0.11"/>
            <stop offset="0.58" stop-color="#e1e1e1" stop-opacity="0.38"/>
            <stop offset="0.88" stop-color="#bebebe" stop-opacity="0.82"/>
            <stop offset="1" stop-color="#afafaf"/>
        </linearGradient>
    </defs>
    <title>QantasCode</title>
    <g id="Layer_2" data-name="Layer 2">
        <g id="ART">
            <line class="logo-pipe" x1="63.42" x2="63.42" y2="35"/>
            <path class="cls-2" d="M13.29,35H49.17L20.42,6.12A20.52,20.52,0,0,0,6,0H0L.44,1.18l2,5.23Z"/>
            <path class="cls-3" d="M2.39,6.39c3.93,6.7,14.25,7.41,15.36,17.84a1,1,0,0,0,.81.85,35.42,35.42,0,0,1,16.75,7.4h0a.11.11,0,0,0,.11,0,.21.21,0,0,0,.13,0,.16.16,0,0,0,0-.23v0A35.58,35.58,0,0,0,23,23.67l-1.45-.58a2,2,0,0,1-1.24-1.89c.08-3.1,7.45-2.49,8.25-4l.13-.26a13.82,13.82,0,0,0-5.3-2.83,1.5,1.5,0,0,0,.31,1.15c.43.71-.49,1.84-1.83.62l-.11-.11C11.83,6.67,4.36,11.4.41,1.16Z"/>
            <path class="cls-4" d="M26.35,16.82a3.07,3.07,0,0,1-2.62-1.54.77.77,0,0,1-.29,1,.72.72,0,0,1-.43.1v2.49c1-.31,2.3-.51,3.34-.72Z"/>
            <path class="cls-5" d="M19.8,25.29a35.44,35.44,0,0,1,15.47,7.22C24.88,23.57,20.13,25.18,19.8,25.29Z"/>
            <path class="cls-6" d="M4.5,6.85h0A11.71,11.71,0,0,1,.37,1.16l2,5.23c3.93,6.7,14.24,7.41,15.36,17.84C16.62,10.92,10.78,12.91,4.5,6.85Z"/>
            <path class="cls-7" d="M85.84,9.8a4,4,0,0,1-2.12,3.72l2,2.94H83.9l-1.7-2.52a3.74,3.74,0,0,1-.68.06A4,4,0,0,1,77.2,9.8V4.66A4,4,0,0,1,81.52.46a4,4,0,0,1,4.32,4.2Zm-7.12,0a2.79,2.79,0,0,0,5.58,0V4.62a2.79,2.79,0,0,0-5.58,0Z"/>
            <path class="cls-7" d="M88.44,13.8,92.64.66h1.54L98.42,13.8H96.84l-1-3h-5l-.94,3Zm2.84-4.34H95.5L93.36,2.72Z"/>
            <path class="cls-7" d="M109.94,13.8h-1.26L103,3.64V13.8h-1.42V.66h1.36l5.6,10V.66h1.42Z"/>
            <path class="cls-7" d="M113,.66h8.44V2H118V13.8h-1.52V2H113Z"/>
            <path class="cls-7" d="M122.32,13.8,126.52.66h1.54L132.3,13.8h-1.58l-1-3h-5l-.94,3Zm2.84-4.34h4.22l-2.14-6.74Z"/>
            <path class="cls-7" d="M141.38,4.4V4.08a2.33,2.33,0,0,0-2.58-2.34c-1.62,0-2.54.82-2.54,2a2.11,2.11,0,0,0,1.5,1.92l2.16.88c1.5.6,3.18,1.4,3.18,3.66S141.36,14,138.82,14s-4.3-1.42-4.3-3.7V10H136v.4c0,1.34,1,2.32,2.78,2.32s2.8-1,2.8-2.34-1-2-2.24-2.46l-1.86-.76c-1.48-.58-2.7-1.54-2.7-3.3,0-2,1.6-3.38,4-3.38s4.06,1.42,4.06,3.7V4.4Z"/>
            <path class="cls-7" d="M85.74,30.6V31c0,2.46-1.72,4-4.24,4a4,4,0,0,1-4.3-4.2V25.66a4,4,0,0,1,4.3-4.2c2.52,0,4.24,1.52,4.24,4v.3H84.28V25.4a2.5,2.5,0,0,0-2.78-2.56,2.61,2.61,0,0,0-2.78,2.78v5.22a2.61,2.61,0,0,0,2.78,2.78,2.5,2.5,0,0,0,2.78-2.56V30.6Z"/>
            <path class="cls-7" d="M97.76,30.8a4.32,4.32,0,0,1-8.64,0V25.66a4,4,0,0,1,4.32-4.2,4,4,0,0,1,4.32,4.2Zm-7.12,0a2.79,2.79,0,0,0,5.58,0V25.62a2.79,2.79,0,0,0-5.58,0Z"/>
            <path class="cls-7" d="M110.3,26V30.5a4.08,4.08,0,0,1-4.42,4.3h-4.16V21.66h4.16A4.08,4.08,0,0,1,110.3,26ZM103.24,23V33.42h2.64a2.69,2.69,0,0,0,2.9-2.88V25.92a2.69,2.69,0,0,0-2.9-2.88Z"/>
            <path class="cls-7" d="M115.76,28.76v4.66h6.14V34.8h-7.66V21.66h7.5V23h-6V27.4h5.48v1.36Z"/>
        </g>
    </g>
</svg>