<?xml version="1.0" encoding="UTF-8" standalone="no"?>
<!DOCTYPE svg PUBLIC "-//W3C//DTD SVG 1.1//EN" "http://www.w3.org/Graphics/SVG/1.1/DTD/svg11.dtd">
<svg width="100%" height="100%" viewBox="0 0 717 90" version="1.1" xmlns="http://www.w3.org/2000/svg" xmlns:xlink="http://www.w3.org/1999/xlink" xml:space="preserve" xmlns:serif="http://www.serif.com/" style="fill-rule:evenodd;clip-rule:evenodd;stroke-linecap:round;stroke-linejoin:round;stroke-miterlimit:1.5;">
    <style>
    .left-leg {
      fill:none;
      animation: blink 2s;
      -webkit-animation: blink 2s infinite;
      stroke-width:2.5px;
    }
    @keyframes blink {
      100% {
        stroke:green;
        stroke-width:4.5px;
      }
      50% {
        stroke:blue;
        stroke-width:2.5px;
      }
      0% {
        stroke:red;
        stroke-width:10.5px;
      }       
    }
    </style>
    <g transform="matrix(1,0,0,1,-103.193,-161.095)">
        <g transform="matrix(2.66063,0,0,2.66063,-19.3508,30.3648)">
            <clipPath id="_clip1">
                <path d="M43.35,85.6L171.132,85.6L171.132,47.35L43.35,47.35L43.35,85.6Z" clip-rule="nonzero"/>
            </clipPath>
            <g clip-path="url(#_clip1)">
                <g transform="matrix(0.215372,0,1.90317e-08,0.215119,43.35,39.6011)">
                    <path d="M52.182,75.37L69.885,75.37L69.885,96.53L52.182,96.53L52.182,133.433C52.182,141.16 55.782,143.636 62.609,143.636C65.459,143.636 68.685,143.26 69.885,142.96L69.885,162.615C67.785,163.515 63.434,164.79 56.458,164.79C39.28,164.79 28.553,154.588 28.553,137.559L28.553,96.53L12.575,96.53L12.575,75.37L17.076,75.37C26.377,75.37 30.653,69.29 30.653,61.42L30.653,49.04L52.182,49.04L52.182,75.37Z" style="fill:rgb(0,34,68);fill-rule:nonzero;"/>
                </g>
                <g transform="matrix(0.215372,0,1.90317e-08,0.215119,43.35,51.9945)">
                    <path d="M134.4,37.118C122.24,37.118 112.42,46.268 112.42,61.868C112.42,77.397 122.24,86.774 134.4,86.774C146.62,86.774 156.3,77.622 156.3,61.868C156.3,46.268 146.62,37.118 134.4,37.118ZM88.938,140.41L88.938,17.758L112.04,17.758L112.04,28.488C115.94,21.658 125.84,15.808 139.12,15.808C164.93,15.808 179.78,35.458 179.78,61.643C179.78,88.349 163.13,108.078 138.22,108.078C125.99,108.078 117.07,103.202 112.72,97.351L112.72,140.41L88.938,140.41Z" style="fill:rgb(0,34,68);fill-rule:nonzero;"/>
                </g>
                <g transform="matrix(0.215372,0,1.90317e-08,0.215119,43.35,52.5433)">
                    <path d="M258.09,56.617C258.09,42.967 248.72,34.417 237.24,34.417C225.46,34.417 216.16,42.967 216.16,56.617C216.16,70.42 224.94,78.972 237.24,78.972C249.47,78.972 258.09,70.195 258.09,56.617ZM213.61,102.452C215.26,112.129 222.91,119.18 234.24,119.18C249.32,119.18 257.72,111.604 257.72,94.575L257.72,88.124C254.12,93.9 245.87,99.451 233.19,99.451C209.71,99.451 192.08,81.297 192.08,56.617C192.08,33.287 208.96,13.557 233.19,13.557C247.14,13.557 255.17,19.707 258.24,25.637L258.24,15.207L281.2,15.207L281.2,93.9C281.2,118.055 268.07,140.11 234.91,140.11C210.76,140.11 194.63,125.031 192.08,108.228L213.61,102.452Z" style="fill:rgb(0,34,68);fill-rule:nonzero;"/>
                </g>
                <g transform="matrix(0.215372,0,1.90317e-08,0.215119,43.35,54.6089)">
                    <path d="M326.06,61.793L326.06,89.849L318.18,89.849L318.18,61.793L307.23,61.793L307.23,54.216L337.08,54.216L337.08,61.793L326.06,61.793Z" style="fill:rgb(0,34,68);fill-rule:nonzero;"/>
                </g>
                <g transform="matrix(0.215372,0,1.90317e-08,0.215119,43.35,54.6089)">
                    <path d="M346.91,89.849L346.91,54.216L369.49,54.216L369.49,61.718L354.86,61.718L354.86,68.469L368.14,68.469L368.14,75.446L354.86,75.446L354.86,82.272L369.56,82.272L369.56,89.849L346.91,89.849Z" style="fill:rgb(0,34,68);fill-rule:nonzero;"/>
                </g>
                <g transform="matrix(0.215372,0,1.90317e-08,0.215119,43.35,54.6089)">
                    <path d="M381.26,89.849L381.26,54.216L389.22,54.216L389.22,82.272L404.52,82.272L404.52,89.849L381.26,89.849Z" style="fill:rgb(0,34,68);fill-rule:nonzero;"/>
                </g>
                <g transform="matrix(0.215372,0,1.90317e-08,0.215119,43.35,54.6089)">
                    <path d="M414.72,89.849L414.72,54.216L437.22,54.216L437.22,61.718L422.6,61.718L422.6,68.469L435.87,68.469L435.87,75.446L422.6,75.446L422.6,82.272L437.3,82.272L437.3,89.849L414.72,89.849Z" style="fill:rgb(0,34,68);fill-rule:nonzero;"/>
                </g>
                <g transform="matrix(0.215372,0,1.90317e-08,0.215119,43.35,54.6089)">
                    <path d="M446.98,72.07C446.98,60.968 455.38,53.466 465.35,53.466C476.01,53.466 480.73,60.368 481.93,65.469L474.43,67.794C473.83,65.394 471.58,61.193 465.35,61.193C460.55,61.193 455.15,64.644 455.15,72.07C455.15,78.747 460.1,82.647 465.43,82.647C471.58,82.647 474.06,78.522 474.81,75.971L482.38,78.146C481.18,83.022 476.46,90.599 465.43,90.599C455.15,90.599 446.98,83.173 446.98,72.07Z" style="fill:rgb(0,34,68);fill-rule:nonzero;"/>
                </g>
                <g transform="matrix(0.215372,0,1.90317e-08,0.215119,43.35,54.6089)">
                    <path d="M509.31,82.722C514.19,82.722 519.51,79.422 519.51,71.995C519.51,64.568 514.19,61.193 509.31,61.193C504.29,61.193 498.96,64.568 498.96,71.995C498.96,79.422 504.29,82.722 509.31,82.722ZM509.31,53.466C519.29,53.466 527.77,60.743 527.77,72.07C527.77,83.323 519.29,90.599 509.31,90.599C499.26,90.599 490.71,83.323 490.71,72.07C490.71,60.743 499.26,53.466 509.31,53.466Z" style="fill:rgb(0,34,68);fill-rule:nonzero;"/>
                </g>
                <g transform="matrix(0.215372,0,1.90317e-08,0.215119,43.35,54.6089)">
                    <path d="M571.05,89.849L571.05,66.219L561.75,89.849L555.3,89.849L545.99,66.519L545.99,89.849L538.49,89.849L538.49,54.216L548.84,54.216L558.6,78.296L567.9,54.216L578.77,54.216L578.77,89.849L571.05,89.849Z" style="fill:rgb(0,34,68);fill-rule:nonzero;"/>
                </g>
                <g transform="matrix(0.215372,0,1.90317e-08,0.215119,43.35,33.3239)">
                    <path d="M322.9,140.03C333.18,140.03 341.43,131.78 341.43,121.5C341.43,111.23 333.18,102.98 322.9,102.98C312.63,102.98 304.38,111.23 304.38,121.5C304.38,131.78 312.63,140.03 322.9,140.03Z" style="fill:rgb(230,0,0);fill-rule:nonzero;"/>
                </g>
                <g transform="matrix(0.215372,0,1.90317e-08,0.215119,43.35,33.3239)">
                    <path d="M465.95,140.03C476.23,140.03 484.56,131.78 484.56,121.5C484.56,111.23 476.23,102.98 465.95,102.98C455.75,102.98 447.43,111.23 447.43,121.5C447.43,131.78 455.75,140.03 465.95,140.03Z" style="fill:rgb(102,101,119);fill-rule:nonzero;"/>
                </g>
                <g transform="matrix(0.215372,0,1.90317e-08,0.215119,43.35,33.3239)">
                    <path d="M513.66,140.03C523.94,140.03 532.19,131.78 532.19,121.5C532.19,111.23 523.94,102.98 513.66,102.98C503.39,102.98 495.06,111.23 495.06,121.5C495.06,131.78 503.39,140.03 513.66,140.03Z" style="fill:rgb(242,101,34);fill-rule:nonzero;"/>
                </g>
                <g transform="matrix(0.215372,0,1.90317e-08,0.215119,43.35,33.3239)">
                    <path d="M418.25,140.03C428.52,140.03 436.85,131.78 436.85,121.5C436.85,111.23 428.52,102.98 418.25,102.98C408.04,102.98 399.72,111.23 399.72,121.5C399.72,131.78 408.04,140.03 418.25,140.03Z" style="fill:rgb(250,187,0);fill-rule:nonzero;"/>
                </g>
                <g transform="matrix(0.215372,0,1.90317e-08,0.215119,43.35,33.3239)">
                    <path d="M370.61,140.03C380.81,140.03 389.14,131.78 389.14,121.5C389.14,111.23 380.81,102.98 370.61,102.98C360.34,102.98 352.01,111.23 352.01,121.5C352.01,131.78 360.34,140.03 370.61,140.03Z" style="fill:rgb(101,18,101);fill-rule:nonzero;"/>
                </g>
                <g transform="matrix(0.215372,0,1.90317e-08,0.215119,43.35,33.3239)">
                    <path d="M561.37,140.03C571.57,140.03 579.9,131.78 579.9,121.5C579.9,111.23 571.57,102.98 561.37,102.98C551.09,102.98 542.77,111.23 542.77,121.5C542.77,131.78 551.09,140.03 561.37,140.03Z" style="fill:rgb(0,34,68);fill-rule:nonzero;"/>
                </g>
            </g>
        </g>
        <g transform="matrix(1.26114,0,0,1.26114,31.1937,-185.046)">
            <g transform="matrix(24.5123,0,0,24.5123,365.129,318.899)">
                <path d="M0.059,-0.542C0.059,-0.582 0.069,-0.618 0.091,-0.649C0.113,-0.679 0.141,-0.702 0.175,-0.718C0.21,-0.733 0.248,-0.74 0.289,-0.74C0.337,-0.74 0.379,-0.734 0.414,-0.721C0.448,-0.708 0.484,-0.687 0.521,-0.659L0.449,-0.542C0.438,-0.552 0.427,-0.56 0.419,-0.566C0.41,-0.572 0.399,-0.578 0.386,-0.585C0.372,-0.593 0.358,-0.598 0.342,-0.601C0.325,-0.605 0.308,-0.606 0.289,-0.606C0.267,-0.606 0.247,-0.601 0.23,-0.589C0.214,-0.578 0.205,-0.562 0.205,-0.542C0.205,-0.527 0.21,-0.513 0.219,-0.5C0.229,-0.488 0.241,-0.477 0.256,-0.468C0.272,-0.459 0.289,-0.45 0.309,-0.44C0.329,-0.43 0.349,-0.42 0.369,-0.411C0.39,-0.402 0.41,-0.391 0.429,-0.378C0.449,-0.365 0.467,-0.351 0.482,-0.336C0.497,-0.321 0.51,-0.303 0.519,-0.281C0.528,-0.259 0.533,-0.234 0.533,-0.208C0.533,-0.18 0.529,-0.154 0.52,-0.131C0.511,-0.107 0.499,-0.087 0.483,-0.07C0.468,-0.054 0.45,-0.04 0.429,-0.028C0.408,-0.016 0.385,-0.007 0.362,-0.002C0.338,0.004 0.313,0.006 0.287,0.006C0.236,0.006 0.191,-0.001 0.151,-0.017C0.111,-0.033 0.073,-0.054 0.037,-0.08L0.114,-0.202C0.178,-0.153 0.236,-0.128 0.287,-0.128C0.3,-0.128 0.312,-0.129 0.323,-0.132C0.335,-0.134 0.345,-0.139 0.355,-0.144C0.365,-0.15 0.372,-0.158 0.378,-0.169C0.384,-0.18 0.387,-0.193 0.387,-0.208C0.387,-0.225 0.381,-0.24 0.369,-0.255C0.357,-0.269 0.341,-0.281 0.322,-0.292C0.302,-0.303 0.281,-0.313 0.258,-0.324C0.234,-0.335 0.211,-0.347 0.188,-0.36C0.164,-0.373 0.143,-0.387 0.124,-0.403C0.104,-0.419 0.089,-0.439 0.077,-0.462C0.065,-0.486 0.059,-0.512 0.059,-0.542Z" style="fill:rgb(0,34,68);fill-rule:nonzero;"/>
            </g>
            <g transform="matrix(24.5123,0,0,24.5123,379.096,318.899)">
                <path d="M0.324,-0.397C0.288,-0.397 0.258,-0.384 0.233,-0.358C0.208,-0.332 0.195,-0.3 0.195,-0.263C0.195,-0.226 0.208,-0.194 0.233,-0.167C0.258,-0.141 0.288,-0.128 0.324,-0.128C0.36,-0.128 0.39,-0.141 0.415,-0.167C0.44,-0.193 0.452,-0.225 0.452,-0.263C0.452,-0.3 0.44,-0.332 0.415,-0.358C0.39,-0.384 0.36,-0.397 0.324,-0.397ZM0.324,0.006C0.246,0.006 0.18,-0.02 0.128,-0.071C0.075,-0.122 0.049,-0.186 0.049,-0.263C0.049,-0.313 0.061,-0.359 0.085,-0.4C0.109,-0.441 0.142,-0.473 0.184,-0.497C0.226,-0.52 0.273,-0.531 0.324,-0.531C0.403,-0.531 0.468,-0.506 0.52,-0.455C0.573,-0.404 0.599,-0.34 0.599,-0.263C0.599,-0.212 0.587,-0.166 0.563,-0.125C0.539,-0.084 0.506,-0.052 0.464,-0.029C0.422,-0.006 0.376,0.006 0.324,0.006Z" style="fill:rgb(0,34,68);fill-rule:nonzero;"/>
            </g>
            <g transform="matrix(24.5123,0,0,24.5123,394.967,318.899)">
                <path d="M0.11,-0.59C0.11,-0.647 0.126,-0.692 0.159,-0.725C0.191,-0.757 0.233,-0.773 0.283,-0.773C0.317,-0.773 0.347,-0.771 0.374,-0.766L0.374,-0.625C0.359,-0.629 0.337,-0.631 0.308,-0.631C0.273,-0.631 0.256,-0.605 0.256,-0.553L0.256,-0.516L0.366,-0.516L0.366,-0.394L0.256,-0.394L0.256,0L0.11,0L0.11,-0.394L0.037,-0.394L0.037,-0.516L0.11,-0.516L0.11,-0.59Z" style="fill:rgb(0,34,68);fill-rule:nonzero;"/>
            </g>
            <g transform="matrix(24.5123,0,0,24.5123,404.722,318.899)">
                <path d="M0.332,0.006C0.269,0.006 0.221,-0.009 0.186,-0.039C0.152,-0.068 0.134,-0.11 0.134,-0.165L0.134,-0.385L0.037,-0.385L0.037,-0.52L0.134,-0.52L0.134,-0.71L0.281,-0.71L0.281,-0.52L0.403,-0.52L0.403,-0.385L0.281,-0.385L0.281,-0.226C0.281,-0.169 0.298,-0.141 0.332,-0.141C0.349,-0.141 0.371,-0.144 0.398,-0.149L0.398,-0.002C0.367,0.003 0.345,0.006 0.332,0.006Z" style="fill:rgb(0,34,68);fill-rule:nonzero;"/>
            </g>
            <g transform="matrix(24.5123,0,0,24.5123,415.494,318.899)">
                <path d="M0.024,-0.519L0.15,-0.519L0.245,-0.175L0.341,-0.519L0.473,-0.519L0.568,-0.175L0.665,-0.519L0.79,-0.519L0.628,0L0.49,0L0.407,-0.335L0.311,0L0.186,0L0.024,-0.519Z" style="fill:rgb(0,34,68);fill-rule:nonzero;"/>
            </g>
            <g transform="matrix(24.5123,0,0,24.5123,435.446,318.899)">
                <path d="M0.315,-0.219C0.297,-0.219 0.282,-0.218 0.269,-0.217C0.255,-0.215 0.243,-0.212 0.231,-0.208C0.22,-0.204 0.211,-0.198 0.205,-0.189C0.198,-0.181 0.195,-0.171 0.195,-0.16C0.195,-0.145 0.201,-0.134 0.211,-0.127C0.222,-0.119 0.236,-0.116 0.253,-0.116C0.272,-0.116 0.293,-0.119 0.315,-0.126C0.336,-0.133 0.353,-0.141 0.366,-0.15L0.366,-0.218C0.353,-0.219 0.336,-0.219 0.315,-0.219ZM0.068,-0.451C0.098,-0.477 0.127,-0.495 0.154,-0.507C0.18,-0.519 0.213,-0.525 0.252,-0.525C0.333,-0.525 0.397,-0.502 0.443,-0.457C0.489,-0.412 0.512,-0.352 0.512,-0.276L0.512,0L0.39,0L0.366,-0.036C0.33,-0.008 0.292,0.006 0.253,0.006C0.216,0.006 0.183,0 0.152,-0.013C0.122,-0.025 0.097,-0.045 0.078,-0.07C0.058,-0.096 0.049,-0.126 0.049,-0.161C0.049,-0.185 0.054,-0.207 0.064,-0.226C0.074,-0.245 0.087,-0.261 0.104,-0.274C0.121,-0.286 0.141,-0.297 0.164,-0.305C0.187,-0.314 0.211,-0.32 0.236,-0.323C0.261,-0.327 0.287,-0.329 0.315,-0.329C0.326,-0.329 0.34,-0.328 0.359,-0.328C0.354,-0.347 0.342,-0.363 0.323,-0.374C0.304,-0.385 0.281,-0.391 0.253,-0.391C0.206,-0.391 0.168,-0.38 0.138,-0.357L0.068,-0.451Z" style="fill:rgb(0,34,68);fill-rule:nonzero;"/>
            </g>
            <g transform="matrix(24.5123,0,0,24.5123,449.198,318.899)">
                <path d="M0.195,-0.468C0.218,-0.506 0.255,-0.525 0.307,-0.525C0.357,-0.525 0.399,-0.516 0.434,-0.497L0.385,-0.373C0.369,-0.381 0.357,-0.386 0.348,-0.388C0.339,-0.39 0.325,-0.391 0.305,-0.391C0.269,-0.391 0.242,-0.381 0.223,-0.361C0.205,-0.34 0.195,-0.311 0.195,-0.273L0.195,0L0.049,0L0.049,-0.519L0.171,-0.519L0.195,-0.468Z" style="fill:rgb(0,34,68);fill-rule:nonzero;"/>
            </g>
            <g transform="matrix(24.5123,0,0,24.5123,460.126,318.899)">
                <path d="M0.412,-0.32C0.404,-0.342 0.392,-0.36 0.375,-0.375C0.358,-0.39 0.338,-0.397 0.314,-0.397C0.287,-0.397 0.264,-0.39 0.245,-0.375C0.225,-0.36 0.211,-0.342 0.203,-0.32L0.412,-0.32ZM0.314,-0.531C0.363,-0.531 0.407,-0.519 0.446,-0.493C0.485,-0.468 0.515,-0.434 0.536,-0.393C0.557,-0.352 0.568,-0.308 0.568,-0.26L0.568,-0.223L0.202,-0.223C0.209,-0.196 0.224,-0.173 0.246,-0.155C0.268,-0.137 0.295,-0.128 0.327,-0.128C0.371,-0.128 0.41,-0.142 0.443,-0.17L0.53,-0.068C0.474,-0.019 0.406,0.006 0.327,0.006C0.275,0.006 0.228,-0.005 0.186,-0.028C0.143,-0.051 0.11,-0.082 0.085,-0.123C0.061,-0.164 0.049,-0.209 0.049,-0.26C0.049,-0.312 0.06,-0.358 0.082,-0.399C0.105,-0.44 0.136,-0.473 0.177,-0.496C0.217,-0.52 0.263,-0.531 0.314,-0.531Z" style="fill:rgb(0,34,68);fill-rule:nonzero;"/>
            </g>
            <g transform="matrix(24.5123,0,0,24.5123,481.801,318.899)">
                <path d="M0.049,-0.734L0.513,-0.734L0.513,-0.6L0.195,-0.6L0.195,-0.418L0.488,-0.418L0.488,-0.284L0.195,-0.284L0.195,-0.134L0.513,-0.134L0.513,0L0.049,0L0.049,-0.734Z" style="fill:rgb(0,34,68);fill-rule:nonzero;"/>
            </g>
            <g transform="matrix(24.5123,0,0,24.5123,495.566,318.899)">
                <path d="M0.319,-0.525C0.362,-0.525 0.399,-0.518 0.432,-0.505C0.464,-0.492 0.491,-0.473 0.511,-0.449C0.531,-0.425 0.547,-0.397 0.557,-0.364C0.567,-0.332 0.572,-0.296 0.572,-0.256L0.572,0L0.426,0L0.426,-0.219C0.426,-0.239 0.425,-0.258 0.423,-0.274C0.421,-0.29 0.418,-0.305 0.413,-0.321C0.408,-0.336 0.402,-0.348 0.394,-0.358C0.386,-0.368 0.375,-0.376 0.363,-0.382C0.35,-0.388 0.335,-0.391 0.317,-0.391C0.279,-0.391 0.249,-0.379 0.227,-0.354C0.206,-0.329 0.195,-0.294 0.195,-0.249L0.195,0L0.049,0L0.049,-0.519L0.171,-0.519L0.195,-0.468C0.224,-0.506 0.266,-0.525 0.319,-0.525Z" style="fill:rgb(0,34,68);fill-rule:nonzero;"/>
            </g>
            <g transform="matrix(24.5123,0,0,24.5123,510.79,318.899)">
                <path d="M0.329,-0.379C0.292,-0.379 0.261,-0.367 0.235,-0.344C0.208,-0.32 0.195,-0.29 0.195,-0.255C0.195,-0.217 0.207,-0.186 0.231,-0.16C0.256,-0.135 0.285,-0.122 0.32,-0.122C0.382,-0.122 0.426,-0.139 0.453,-0.174L0.453,-0.338C0.427,-0.365 0.386,-0.379 0.329,-0.379ZM0.049,-0.261C0.049,-0.309 0.062,-0.353 0.087,-0.394C0.112,-0.434 0.146,-0.466 0.188,-0.489C0.231,-0.512 0.276,-0.524 0.325,-0.524C0.376,-0.524 0.419,-0.507 0.453,-0.474L0.477,-0.519L0.599,-0.519L0.599,-0.042C0.599,0.055 0.576,0.13 0.53,0.185C0.484,0.239 0.413,0.267 0.318,0.267C0.235,0.267 0.154,0.236 0.076,0.176L0.156,0.06C0.206,0.105 0.261,0.127 0.319,0.127C0.34,0.127 0.359,0.125 0.375,0.119C0.391,0.113 0.404,0.105 0.414,0.096C0.424,0.086 0.432,0.074 0.438,0.059C0.443,0.044 0.447,0.029 0.449,0.013C0.452,-0.003 0.453,-0.022 0.453,-0.042C0.42,-0.01 0.376,0.006 0.32,0.006C0.27,0.006 0.224,-0.005 0.182,-0.028C0.141,-0.051 0.108,-0.083 0.084,-0.124C0.061,-0.165 0.049,-0.211 0.049,-0.261Z" style="fill:rgb(0,34,68);fill-rule:nonzero;"/>
            </g>
            <g transform="matrix(24.5123,0,0,24.5123,526.673,318.899)">
                <path d="M0.042,-0.752L0.202,-0.752L0.202,-0.592L0.042,-0.592L0.042,-0.752ZM0.195,0L0.049,0L0.049,-0.519L0.195,-0.519L0.195,0Z" style="fill:rgb(0,34,68);fill-rule:nonzero;"/>
            </g>
            <g transform="matrix(24.5123,0,0,24.5123,532.657,318.899)">
                <path d="M0.319,-0.525C0.362,-0.525 0.399,-0.518 0.432,-0.505C0.464,-0.492 0.491,-0.473 0.511,-0.449C0.531,-0.425 0.547,-0.397 0.557,-0.364C0.567,-0.332 0.572,-0.296 0.572,-0.256L0.572,0L0.426,0L0.426,-0.219C0.426,-0.239 0.425,-0.258 0.423,-0.274C0.421,-0.29 0.418,-0.305 0.413,-0.321C0.408,-0.336 0.402,-0.348 0.394,-0.358C0.386,-0.368 0.375,-0.376 0.363,-0.382C0.35,-0.388 0.335,-0.391 0.317,-0.391C0.279,-0.391 0.249,-0.379 0.227,-0.354C0.206,-0.329 0.195,-0.294 0.195,-0.249L0.195,0L0.049,0L0.049,-0.519L0.171,-0.519L0.195,-0.468C0.224,-0.506 0.266,-0.525 0.319,-0.525Z" style="fill:rgb(0,34,68);fill-rule:nonzero;"/>
            </g>
            <g transform="matrix(24.5123,0,0,24.5123,547.882,318.899)">
                <path d="M0.412,-0.32C0.404,-0.342 0.392,-0.36 0.375,-0.375C0.358,-0.39 0.338,-0.397 0.314,-0.397C0.287,-0.397 0.264,-0.39 0.245,-0.375C0.225,-0.36 0.211,-0.342 0.203,-0.32L0.412,-0.32ZM0.314,-0.531C0.363,-0.531 0.407,-0.519 0.446,-0.493C0.485,-0.468 0.515,-0.434 0.536,-0.393C0.557,-0.352 0.568,-0.308 0.568,-0.26L0.568,-0.223L0.202,-0.223C0.209,-0.196 0.224,-0.173 0.246,-0.155C0.268,-0.137 0.295,-0.128 0.327,-0.128C0.371,-0.128 0.41,-0.142 0.443,-0.17L0.53,-0.068C0.474,-0.019 0.406,0.006 0.327,0.006C0.275,0.006 0.228,-0.005 0.186,-0.028C0.143,-0.051 0.11,-0.082 0.085,-0.123C0.061,-0.164 0.049,-0.209 0.049,-0.26C0.049,-0.312 0.06,-0.358 0.082,-0.399C0.105,-0.44 0.136,-0.473 0.177,-0.496C0.217,-0.52 0.263,-0.531 0.314,-0.531Z" style="fill:rgb(0,34,68);fill-rule:nonzero;"/>
            </g>
            <g transform="matrix(24.5123,0,0,24.5123,562.998,318.899)">
                <path d="M0.412,-0.32C0.404,-0.342 0.392,-0.36 0.375,-0.375C0.358,-0.39 0.338,-0.397 0.314,-0.397C0.287,-0.397 0.264,-0.39 0.245,-0.375C0.225,-0.36 0.211,-0.342 0.203,-0.32L0.412,-0.32ZM0.314,-0.531C0.363,-0.531 0.407,-0.519 0.446,-0.493C0.485,-0.468 0.515,-0.434 0.536,-0.393C0.557,-0.352 0.568,-0.308 0.568,-0.26L0.568,-0.223L0.202,-0.223C0.209,-0.196 0.224,-0.173 0.246,-0.155C0.268,-0.137 0.295,-0.128 0.327,-0.128C0.371,-0.128 0.41,-0.142 0.443,-0.17L0.53,-0.068C0.474,-0.019 0.406,0.006 0.327,0.006C0.275,0.006 0.228,-0.005 0.186,-0.028C0.143,-0.051 0.11,-0.082 0.085,-0.123C0.061,-0.164 0.049,-0.209 0.049,-0.26C0.049,-0.312 0.06,-0.358 0.082,-0.399C0.105,-0.44 0.136,-0.473 0.177,-0.496C0.217,-0.52 0.263,-0.531 0.314,-0.531Z" style="fill:rgb(0,34,68);fill-rule:nonzero;"/>
            </g>
            <g transform="matrix(24.5123,0,0,24.5123,578.115,318.899)">
                <path d="M0.195,-0.468C0.218,-0.506 0.255,-0.525 0.307,-0.525C0.357,-0.525 0.399,-0.516 0.434,-0.497L0.385,-0.373C0.369,-0.381 0.357,-0.386 0.348,-0.388C0.339,-0.39 0.325,-0.391 0.305,-0.391C0.269,-0.391 0.242,-0.381 0.223,-0.361C0.205,-0.34 0.195,-0.311 0.195,-0.273L0.195,0L0.049,0L0.049,-0.519L0.171,-0.519L0.195,-0.468Z" style="fill:rgb(0,34,68);fill-rule:nonzero;"/>
            </g>
            <g transform="matrix(24.5123,0,0,24.5123,589.043,318.899)">
                <path d="M0.042,-0.752L0.202,-0.752L0.202,-0.592L0.042,-0.592L0.042,-0.752ZM0.195,0L0.049,0L0.049,-0.519L0.195,-0.519L0.195,0Z" style="fill:rgb(0,34,68);fill-rule:nonzero;"/>
            </g>
            <g transform="matrix(24.5123,0,0,24.5123,595.027,318.899)">
                <path d="M0.319,-0.525C0.362,-0.525 0.399,-0.518 0.432,-0.505C0.464,-0.492 0.491,-0.473 0.511,-0.449C0.531,-0.425 0.547,-0.397 0.557,-0.364C0.567,-0.332 0.572,-0.296 0.572,-0.256L0.572,0L0.426,0L0.426,-0.219C0.426,-0.239 0.425,-0.258 0.423,-0.274C0.421,-0.29 0.418,-0.305 0.413,-0.321C0.408,-0.336 0.402,-0.348 0.394,-0.358C0.386,-0.368 0.375,-0.376 0.363,-0.382C0.35,-0.388 0.335,-0.391 0.317,-0.391C0.279,-0.391 0.249,-0.379 0.227,-0.354C0.206,-0.329 0.195,-0.294 0.195,-0.249L0.195,0L0.049,0L0.049,-0.519L0.171,-0.519L0.195,-0.468C0.224,-0.506 0.266,-0.525 0.319,-0.525Z" style="fill:rgb(0,34,68);fill-rule:nonzero;"/>
            </g>
            <g transform="matrix(24.5123,0,0,24.5123,610.251,318.899)">
                <path d="M0.329,-0.379C0.292,-0.379 0.261,-0.367 0.235,-0.344C0.208,-0.32 0.195,-0.29 0.195,-0.255C0.195,-0.217 0.207,-0.186 0.231,-0.16C0.256,-0.135 0.285,-0.122 0.32,-0.122C0.382,-0.122 0.426,-0.139 0.453,-0.174L0.453,-0.338C0.427,-0.365 0.386,-0.379 0.329,-0.379ZM0.049,-0.261C0.049,-0.309 0.062,-0.353 0.087,-0.394C0.112,-0.434 0.146,-0.466 0.188,-0.489C0.231,-0.512 0.276,-0.524 0.325,-0.524C0.376,-0.524 0.419,-0.507 0.453,-0.474L0.477,-0.519L0.599,-0.519L0.599,-0.042C0.599,0.055 0.576,0.13 0.53,0.185C0.484,0.239 0.413,0.267 0.318,0.267C0.235,0.267 0.154,0.236 0.076,0.176L0.156,0.06C0.206,0.105 0.261,0.127 0.319,0.127C0.34,0.127 0.359,0.125 0.375,0.119C0.391,0.113 0.404,0.105 0.414,0.096C0.424,0.086 0.432,0.074 0.438,0.059C0.443,0.044 0.447,0.029 0.449,0.013C0.452,-0.003 0.453,-0.022 0.453,-0.042C0.42,-0.01 0.376,0.006 0.32,0.006C0.27,0.006 0.224,-0.005 0.182,-0.028C0.141,-0.051 0.108,-0.083 0.084,-0.124C0.061,-0.165 0.049,-0.211 0.049,-0.261Z" style="fill:rgb(0,34,68);fill-rule:nonzero;"/>
            </g>
        </g>
        <g transform="matrix(1,0,0,1,1,6)">
            <path class="left-leg" d="M463.085,156.345L463.085,243.381"/>
        </g>
    </g>
</svg>
